# xmcd CD database file
#
# Track frame offsets:
#	150
#	19570
#	36177
#	51292
#	73505
#	93785
#	112492
#	137572
#	158200
#	176335
#	191160
#	207467
#	223512
#	261962
#
# Disc length: 3704 seconds
#
# Revision: 2
# Processed by: cddbd v1.5.2PL0 Copyright (c) Steve Scherf et al.
# Submitted via: CDex 1.51
#
DISCID=cd0e760e
DTITLE=Soulive - Break Out
DYEAR=2005
DGENRE=Funk
TTITLE0=Reverb
TTITLE1=Got Soul
TTITLE2=Cachaca
TTITLE3=Back Again
TTITLE4=Break Out
TTITLE5=She's Hooked
TTITLE6=Vapor
TTITLE7=Crosstown Traffic
TTITLE8=What Can You Do
TTITLE9=Headphones
TTITLE10=Left Behind
TTITLE11=Glad Ta Know Ya
TTITLE12=Crosstown Reprise
TTITLE13=Take It Easy
EXTD=YEAR: 2005
EXTT0=
EXTT1=
EXTT2=
EXTT3=
EXTT4=
EXTT5=
EXTT6=
EXTT7=
EXTT8=
EXTT9=
EXTT10=
EXTT11=
EXTT12=
EXTT13=
PLAYORDER=
